<?xml version="1.0" encoding="iso-8859-1"?>
<!-- Generator: Adobe Illustrator 19.0.0, SVG Export Plug-In . SVG Version: 6.00 Build 0)  -->
<svg version="1.1" id="Capa_1" xmlns="http://www.w3.org/2000/svg" xmlns:xlink="http://www.w3.org/1999/xlink" x="0px" y="0px"
	 viewBox="0 0 512 512" style="enable-background:new 0 0 512 512;" xml:space="preserve">
<circle style="fill:#AB47BC;" cx="256" cy="256" r="256"/>
<circle style="fill:#ECEFF1;" cx="256" cy="192" r="128"/>
<path d="M256,512C114.615,512,0,397.385,0,256S114.615,0,256,0s256,114.615,256,256C511.841,397.319,397.319,511.841,256,512z
	 M256,32C132.288,32,32,132.288,32,256s100.288,224,224,224s224-100.288,224-224C479.859,132.347,379.653,32.141,256,32z"/>
<path d="M256,240c-26.51,0-48-21.49-48-48s21.49-48,48-48s48,21.49,48,48S282.51,240,256,240z M256,176c-8.837,0-16,7.163-16,16
	s7.163,16,16,16c8.837,0,16-7.163,16-16S264.837,176,256,176z"/>
<path d="M256,320c-70.692,0-128-57.308-128-128S185.308,64,256,64s128,57.308,128,128S326.692,320,256,320z M256,96
	c-53.019,0-96,42.981-96,96s42.981,96,96,96s96-42.981,96-96S309.019,96,256,96z"/>
<path d="M304,416h-96c-8.837,0-16-7.163-16-16s7.163-16,16-16h96c8.837,0,16,7.163,16,16S312.837,416,304,416z"/>
<g>
</g>
<g>
</g>
<g>
</g>
<g>
</g>
<g>
</g>
<g>
</g>
<g>
</g>
<g>
</g>
<g>
</g>
<g>
</g>
<g>
</g>
<g>
</g>
<g>
</g>
<g>
</g>
<g>
</g>
</svg>
