<svg enable-background="new 0 0 24 24" height="512" viewBox="0 0 24 24" width="512" xmlns="http://www.w3.org/2000/svg"><g fill="#546e7a"><path d="m15.831 2.242h-7.912c-.868 0-1.575.707-1.575 1.575v1.547c0 .373.302.675.675.675h9.712c.373 0 .675-.302.675-.675v-1.547c0-.868-.707-1.575-1.575-1.575z"/><path d="m22.25 10.175h-.9c-.373 0-.675.302-.675.675v6.3c0 .373.302.675.675.675h.9c.868 0 1.575-.707 1.575-1.575v-4.5c0-.868-.707-1.575-1.575-1.575z"/><path d="m2.56 10.557h-.81c-.782 0-1.418.636-1.418 1.418v4.05c0 .782.636 1.417 1.418 1.417h.81c.335 0 .607-.272.607-.608v-5.67c0-.334-.272-.607-.607-.607z"/></g><path d="m18.525 5.713h-13.05c-1.365 0-2.475 1.11-2.475 2.475v12.375c0 1.365 1.11 2.475 2.475 2.475h13.05c1.365 0 2.475-1.11 2.475-2.475v-12.375c0-1.365-1.11-2.475-2.475-2.475z" fill="#78909c"/><path d="m6.979 12.62c-.893 0-1.62-.727-1.62-1.62s.727-1.62 1.62-1.62 1.62.727 1.62 1.62-.726 1.62-1.62 1.62z" fill="#fff"/><path d="m16.979 12.62c-.893 0-1.62-.727-1.62-1.62s.727-1.62 1.62-1.62 1.62.727 1.62 1.62-.726 1.62-1.62 1.62z" fill="#fff"/><path d="m16.505 16.275h-9.005c-1.365 0-2.475 1.11-2.475 2.475s1.11 2.475 2.475 2.475h9.004c1.365 0 2.475-1.11 2.475-2.475s-1.109-2.475-2.474-2.475z" fill="#fff"/><path d="m19.25 24h-14.5c-1.517 0-2.75-1.233-2.75-2.75v-13.75c0-1.517 1.233-2.75 2.75-2.75h14.5c1.517 0 2.75 1.233 2.75 2.75v13.75c0 1.517-1.233 2.75-2.75 2.75zm-14.5-17.75c-.689 0-1.25.561-1.25 1.25v13.75c0 .689.561 1.25 1.25 1.25h14.5c.689 0 1.25-.561 1.25-1.25v-13.75c0-.689-.561-1.25-1.25-1.25z"/><path d="m22.25 18.25h-1c-.414 0-.75-.336-.75-.75v-7c0-.414.336-.75.75-.75h1c.965 0 1.75.785 1.75 1.75v5c0 .965-.785 1.75-1.75 1.75zm-.25-1.5h.25c.138 0 .25-.112.25-.25v-5c0-.138-.112-.25-.25-.25h-.25z"/><path d="m2.75 18.25h-1c-.965 0-1.75-.785-1.75-1.75v-5c0-.965.785-1.75 1.75-1.75h1c.414 0 .75.336.75.75v7c0 .414-.336.75-.75.75zm-1-7c-.138 0-.25.112-.25.25v5c0 .138.112.25.25.25h.25v-5.5z"/><path d="m6.979 13c-1.103 0-2-.897-2-2s.897-2 2-2 2 .897 2 2-.897 2-2 2zm0-2.5c-.275 0-.5.225-.5.5s.225.5.5.5.5-.225.5-.5-.224-.5-.5-.5z"/><path d="m16.979 13c-1.103 0-2-.897-2-2s.897-2 2-2 2 .897 2 2-.897 2-2 2zm0-2.5c-.275 0-.5.225-.5.5s.225.5.5.5.5-.225.5-.5-.224-.5-.5-.5z"/><path d="m17.271 6.25h-10.792c-.414 0-.75-.336-.75-.75v-1.719c0-.965.785-1.75 1.75-1.75h8.791c.965 0 1.75.785 1.75 1.75v1.719c.001.414-.335.75-.749.75zm-10.042-1.5h9.291v-.969c0-.138-.112-.25-.25-.25h-8.791c-.138 0-.25.112-.25.25z"/><path d="m12 3.531c-.414 0-.75-.336-.75-.75v-2.031c0-.414.336-.75.75-.75s.75.336.75.75v2.031c0 .414-.336.75-.75.75z"/><path d="m17.005 21.5h-10.005c-1.517 0-2.75-1.233-2.75-2.75s1.233-2.75 2.75-2.75h10.005c1.517 0 2.75 1.233 2.75 2.75s-1.234 2.75-2.75 2.75zm-10.005-4c-.689 0-1.25.561-1.25 1.25s.561 1.25 1.25 1.25h10.005c.689 0 1.25-.561 1.25-1.25s-.561-1.25-1.25-1.25z"/></svg>