<?xml version="1.0" encoding="iso-8859-1"?>
<!-- Generator: Adobe Illustrator 19.0.0, SVG Export Plug-In . SVG Version: 6.00 Build 0)  -->
<svg version="1.1" id="Capa_1" xmlns="http://www.w3.org/2000/svg" xmlns:xlink="http://www.w3.org/1999/xlink" x="0px" y="0px"
	 viewBox="0 0 512.321 512.321" style="enable-background:new 0 0 512.321 512.321;" xml:space="preserve">
<circle style="fill:#ECEFF1;" cx="256.321" cy="256.001" r="256"/>
<g>
	<circle style="fill:#F44336;" cx="256.001" cy="272.321" r="32"/>
	<path style="fill:#F44336;" d="M380.449,335.521c-12.496-12.492-32.752-12.492-45.248,0c-44.334,42.285-114.066,42.285-158.4,0
		c-12.278-12.712-32.536-13.064-45.248-0.787c-12.712,12.278-13.064,32.536-0.787,45.248c0.258,0.267,0.52,0.529,0.787,0.787
		c68.732,68.729,180.164,68.729,248.896,0C392.942,368.273,392.942,348.017,380.449,335.521z"/>
</g>
<g>
	<path style="fill:#9C27B0;" d="M112.001,0.321c-7.718,0.012-15.318,1.901-22.144,5.504c-8.118-3.685-16.94-5.563-25.856-5.504
		c-35.346,0-64,28.654-64,64c-0.059,8.916,1.819,17.738,5.504,25.856c-3.603,6.826-5.492,14.426-5.504,22.144
		c0.055,26.51,21.59,47.955,48.099,47.9c23.457-0.049,43.443-17.044,47.261-40.188c10.285-5.614,18.738-14.067,24.352-24.352
		c26.156-4.314,43.863-29.015,39.549-55.172C155.444,17.365,135.458,0.369,112.001,0.321z"/>
	<path style="fill:#9C27B0;" d="M512.001,64.321c0-35.346-28.654-64-64-64c-8.902-0.023-17.706,1.853-25.824,5.504
		c-23.439-12.385-52.48-3.424-64.864,20.015s-3.424,52.48,20.015,64.864c4.679,2.472,9.734,4.154,14.961,4.976
		c5.631,10.272,14.08,18.721,24.352,24.352c4.122,26.187,28.692,44.075,54.88,39.953c26.187-4.122,44.075-28.692,39.953-54.88
		c-0.823-5.227-2.504-10.283-4.976-14.961C510.183,82.038,512.061,73.226,512.001,64.321z"/>
</g>
<g>
	<circle style="fill:#FAFAFA;" cx="160.001" cy="176.321" r="32"/>
	<circle style="fill:#FAFAFA;" cx="352.001" cy="176.321" r="32"/>
</g>
<path d="M256.001,512.321c-141.319-0.159-255.841-114.681-256-256c-0.084-41.817,10.231-82.999,30.016-119.84
	c4.162-7.803,13.861-10.754,21.664-6.592s10.754,13.861,6.592,21.664c-17.31,32.204-26.338,68.207-26.272,104.768
	c0,123.712,100.288,224,224,224s224-100.288,224-224c0.066-36.561-8.962-72.564-26.272-104.768
	c-4.162-7.803-1.211-17.502,6.592-21.664c7.803-4.162,17.502-1.211,21.664,6.592c19.785,36.841,30.1,78.023,30.016,119.84
	C511.843,397.64,397.32,512.162,256.001,512.321z"/>
<path d="M368.321,60.481c-2.634,0.002-5.228-0.647-7.552-1.888c-65.491-34.879-144.045-34.879-209.536,0
	c-7.803,4.162-17.502,1.211-21.664-6.592c-4.162-7.803-1.211-17.502,6.592-21.664c74.918-39.874,164.762-39.874,239.68,0
	c7.812,4.131,10.795,13.812,6.664,21.624C379.727,57.215,374.265,60.496,368.321,60.481z"/>
<path d="M160.001,224.321c-26.51,0-48-21.49-48-48s21.49-48,48-48s48,21.49,48,48S186.511,224.321,160.001,224.321z
	 M160.001,160.321c-8.837,0-16,7.163-16,16s7.163,16,16,16s16-7.163,16-16S168.838,160.321,160.001,160.321z"/>
<path d="M352.001,224.321c-26.51,0-48-21.49-48-48s21.49-48,48-48s48,21.49,48,48S378.511,224.321,352.001,224.321z
	 M352.001,160.321c-8.837,0-16,7.163-16,16s7.163,16,16,16s16-7.163,16-16S360.838,160.321,352.001,160.321z"/>
<path d="M256.001,320.321c-26.51,0-48-21.49-48-48s21.49-48,48-48s48,21.49,48,48S282.511,320.321,256.001,320.321z
	 M256.001,256.321c-8.837,0-16,7.163-16,16s7.163,16,16,16s16-7.163,16-16S264.838,256.321,256.001,256.321z"/>
<path d="M256.001,448.321c-50.95,0.152-99.838-20.108-135.744-56.256c-19.068-18.417-19.596-48.804-1.18-67.872
	c18.417-19.068,48.804-19.596,67.872-1.18c0.4,0.386,0.793,0.78,1.18,1.18c18.176,17.606,42.568,27.324,67.872,27.04l0,0
	c25.3,0.263,49.685-9.451,67.872-27.04c19.068-18.417,49.455-17.889,67.872,1.179c17.966,18.601,17.966,48.092,0,66.693
	C355.839,428.212,306.951,448.473,256.001,448.321z M154.177,342.145c-4.239-0.02-8.309,1.663-11.296,4.672
	c-6.246,6.248-6.246,16.376,0,22.624c62.48,62.461,163.76,62.461,226.24,0c6.139-6.356,5.963-16.485-0.394-22.624
	c-6.2-5.988-16.03-5.988-22.23,0c-24.201,23.569-56.715,36.653-90.496,36.416l0,0c-33.771,0.236-66.275-12.849-90.464-36.416
	C162.523,343.81,158.435,342.129,154.177,342.145z"/>
<path d="M48.001,160.321c-26.51-0.041-47.967-21.565-47.926-48.074c0.012-7.696,1.874-15.276,5.43-22.102
	c-3.651-8.118-5.527-16.922-5.504-25.824c0-35.346,28.654-64,64-64c8.902-0.023,17.706,1.853,25.824,5.504
	c23.439-12.385,52.48-3.424,64.864,20.015c12.385,23.439,3.424,52.48-20.015,64.864c-4.679,2.472-9.734,4.154-14.961,4.976
	c-5.631,10.272-14.08,18.721-24.352,24.352C91.581,143.254,71.528,160.313,48.001,160.321z M64.001,32.321
	c-17.673,0-32,14.327-32,32c-0.071,6.192,1.81,12.249,5.376,17.312c4.311,6.085,3.846,14.341-1.12,19.904
	c-2.717,2.936-4.235,6.784-4.256,10.784c0,8.837,7.163,16,16,16s16-7.163,16-16c-1.221-3.745-0.779-7.835,1.216-11.232
	c2.122-3.512,5.593-5.999,9.6-6.88c9.175-2.842,16.358-10.025,19.2-19.2c1.3-4.045,4.155-7.406,7.936-9.344
	c3.754-1.997,8.165-2.356,12.192-0.992c7.975-1.366,13.817-8.261,13.856-16.352c-0.495-9.035-8.22-15.958-17.255-15.464
	c-3.492,0.191-6.831,1.495-9.529,3.72c-5.563,4.966-13.819,5.431-19.904,1.12C76.251,34.13,70.194,32.249,64.001,32.321z"/>
<path d="M464.001,160.321c-23.527-0.008-43.58-17.067-47.36-40.288c-10.272-5.631-18.721-14.08-24.352-24.352
	c-26.187-4.122-44.075-28.692-39.953-54.88c4.122-26.187,28.692-44.075,54.88-39.953c5.227,0.823,10.283,2.504,14.961,4.976
	c8.118-3.651,16.922-5.527,25.824-5.504c35.346,0,64,28.654,64,64c0.023,8.902-1.853,17.706-5.504,25.824
	c12.248,23.511,3.117,52.499-20.394,64.746C479.278,158.447,471.697,160.309,464.001,160.321z M404.193,63.649
	c2.463,0.06,4.877,0.708,7.04,1.888c3.512,2.122,5.999,5.593,6.88,9.6c2.842,9.175,10.025,16.358,19.2,19.2
	c8.412,2.704,13.04,11.716,10.336,20.128c1.366,7.975,8.261,13.817,16.352,13.856c8.837,0,16-7.163,16-16
	c-0.021-4-1.539-7.848-4.256-10.784c-4.966-5.563-5.431-13.819-1.12-19.904c3.566-5.063,5.447-11.12,5.376-17.312
	c0-17.673-14.327-32-32-32c-6.192-0.071-12.249,1.81-17.312,5.376c-6.085,4.311-14.341,3.846-19.904-1.12
	c-6.981-5.757-17.307-4.765-23.064,2.215c-2.225,2.698-3.528,6.037-3.72,9.529c0,8.837,7.163,16,16,16
	C401.354,63.874,402.769,63.647,404.193,63.649z"/>
<g>
</g>
<g>
</g>
<g>
</g>
<g>
</g>
<g>
</g>
<g>
</g>
<g>
</g>
<g>
</g>
<g>
</g>
<g>
</g>
<g>
</g>
<g>
</g>
<g>
</g>
<g>
</g>
<g>
</g>
</svg>
