<svg enable-background="new 0 0 24 24" height="512" viewBox="0 0 24 24" width="512" xmlns="http://www.w3.org/2000/svg"><path d="m18.93 9.192c-1.044.666-3.591 1.476-6.93 1.476-3.366 0-5.886-.81-6.93-1.476.018-.027.054-.054.081-.072 1.008-.675 2.106-1.188 3.276-1.53.432-.117.9.207.9.639h5.346c0-.369.306-.666.693-.666h.009c.063 0 .135.009.198.027 1.17.342 2.268.855 3.276 1.53.027.018.063.044.081.072z" fill="#ffb74d"/><path d="m17.937 2.423c-.233 0-.463.035-.689.104-.691-.699-1.698-1.06-2.671-.963-1.486-1.153-3.64-1.153-5.127 0-.951-.094-1.921.241-2.616.915-.169-.037-.338-.056-.508-.056-1.337 0-2.425 1.088-2.425 2.425 0 1.507 1.439 2.7 2.934 2.369.489.474 1.097.784 1.738.883.278.056.587.06.876.033.181.141.375.268.576.377v2.314c0 .373.302.675.675.675s.675-.302.675-.675h1.275c0 .373.302.675.675.675s.675-.302.675-.675v-2.314c.202-.11.396-.237.577-.378.29.028.614.021.849-.028.694-.11 1.335-.443 1.823-.935.225.069.455.103.688.103 1.337 0 2.425-1.088 2.425-2.425s-1.088-2.424-2.425-2.424z" fill="#ff5722"/><path d="m20.55 14.688c0 4.707-3.834 8.55-8.55 8.55s-8.55-3.843-8.55-8.55c0-1.161.225-2.277.675-3.321.009-.009.009-.027.018-.036.207-.486.468-.972.774-1.413.036-.063.081-.126.126-.189.009-.009.009-.018.018-.027h.009c1.044.666 3.564 1.476 6.93 1.476 3.339 0 5.886-.81 6.93-1.476h.009c.009.009.009.018.018.027.045.063.09.126.126.189.306.441.567.927.774 1.413.009.009.009.027.018.036.45 1.044.675 2.16.675 3.321z" fill="#ffd54f"/><path d="m8 15.62c-.893 0-1.62-.727-1.62-1.62s.726-1.62 1.62-1.62 1.62.727 1.62 1.62-.727 1.62-1.62 1.62z" fill="#6d4c41"/><path d="m16 15.62c-.893 0-1.62-.727-1.62-1.62s.727-1.62 1.62-1.62 1.62.727 1.62 1.62-.727 1.62-1.62 1.62z" fill="#6d4c41"/><path d="m12 21.188c-1.117 0-2.025-1.035-2.025-2.309s.908-2.309 2.025-2.309 2.025 1.035 2.025 2.309-.909 2.309-2.025 2.309z" fill="#e53935"/><path d="m8 16c-1.103 0-2-.897-2-2s.897-2 2-2 2 .897 2 2-.897 2-2 2zm0-2.5c-.276 0-.5.225-.5.5s.224.5.5.5.5-.225.5-.5-.225-.5-.5-.5z"/><path d="m16 16c-1.103 0-2-.897-2-2s.897-2 2-2 2 .897 2 2-.897 2-2 2zm0-2.5c-.276 0-.5.225-.5.5s.224.5.5.5.5-.225.5-.5-.225-.5-.5-.5z"/><path d="m12 23.985c-5.238 0-9.5-4.262-9.5-9.5 0-1.284.253-2.526.752-3.69.288-.687.664-1.351 1.117-1.968.242-.328.701-.404 1.035-.171 1.914 1.338 4.133 2.017 6.596 2.017s4.682-.679 6.597-2.017c.335-.234.793-.158 1.035.171.453.617.829 1.281 1.119 1.974.497 1.158.75 2.4.75 3.685-.001 5.238-4.263 9.499-9.501 9.499zm-6.817-13.68c-.211.347-.396.706-.55 1.076-.421.981-.633 2.024-.633 3.104 0 4.411 3.589 8 8 8s8-3.589 8-8c0-1.08-.212-2.123-.631-3.099-.156-.373-.341-.735-.552-1.082-2.02 1.24-4.309 1.868-6.817 1.868s-4.797-.627-6.817-1.867z"/><path d="m4.971 9.971c-.236 0-.469-.111-.615-.32-.237-.339-.155-.807.185-1.045 1.094-.766 2.293-1.35 3.566-1.737.471-.139.973.231.973.718 0 .361-.251.662-.59.733-1.101.342-2.14.851-3.089 1.515-.131.092-.281.136-.43.136z"/><path d="m19.029 9.971c-.148 0-.299-.044-.43-.136-.958-.671-2.009-1.184-3.124-1.524-.319-.087-.556-.378-.556-.724 0-.414.331-.75.745-.75h.01c.074 0 .147.011.218.032 1.273.388 2.473.972 3.566 1.737.339.237.422.705.184 1.044-.144.209-.377.321-.613.321z"/><path d="m12 21.73c-1.378 0-2.5-1.278-2.5-2.851 0-1.571 1.122-2.85 2.5-2.85s2.5 1.278 2.5 2.85c0 1.573-1.122 2.851-2.5 2.851zm0-4.2c-.542 0-1 .618-1 1.35s.458 1.351 1 1.351 1-.618 1-1.351c0-.732-.458-1.35-1-1.35z"/><path d="m13.458 12.1c-.414 0-.75-.336-.75-.75v-3.043c0-.304.184-.578.465-.693.346-.143.672-.35.945-.6.179-.163.423-.233.662-.18.218.045.502.065.747.018.608-.097 1.127-.422 1.457-.897.221-.32.651-.417.988-.225.864.49 1.805-.16 1.805-1.021 0-.859-.93-1.515-1.807-1.02-.336.193-.762.096-.984-.222-.406-.58-1.067-.926-1.768-.926-.156 0-.307.015-.438.042-.237.054-.479-.016-.658-.177-1.196-1.08-3.049-1.08-4.245 0-.178.162-.423.231-.657.178-.131-.027-.282-.042-.438-.042-.666 0-1.289.312-1.711.856-.211.273-.579.369-.895.228-.862-.373-1.69.268-1.69 1.083 0 .817.849 1.457 1.688 1.084.316-.142.683-.047.895.225.352.451.839.746 1.371.828.327.063.561.034.78-.012.237-.055.482.017.662.18.273.25.6.457.945.6.281.115.465.39.465.693v3.043c0 .414-.336.75-.75.75s-.75-.336-.75-.75v-2.57c-.226-.124-.44-.264-.642-.422-.322.032-.664.027-.973-.036-.711-.109-1.387-.454-1.931-.981-1.69.369-3.259-.96-3.259-2.632 0-1.673 1.597-3.004 3.259-2.632.772-.75 1.855-1.119 2.907-1.018 1.65-1.281 4.045-1.281 5.695 0 1.082-.102 2.2.294 2.969 1.07.251-.076.507-.115.766-.115 1.486 0 2.694 1.209 2.694 2.694s-1.208 2.694-2.694 2.694c-.259 0-.514-.038-.764-.115-.542.548-1.254.918-2.026 1.04-.259.054-.62.062-.942.03-.202.157-.416.298-.642.421v2.57c-.001.416-.336.752-.751.752z"/></svg>