<svg enable-background="new 0 0 24 24" height="512" viewBox="0 0 24 24" width="512" xmlns="http://www.w3.org/2000/svg"><circle cx="12" cy="12" fill="#ffd54f" r="10.8"/><circle cx="7" cy="9" fill="#6d4c41" r="1.62"/><circle cx="17" cy="9" fill="#6d4c41" r="1.62"/><path d="m18.5 12.513c-.227-.328-.773-.328-1 0-.337.488-1.12 1.695-1.12 2.37 0 .893.727 1.62 1.62 1.62s1.62-.727 1.62-1.62c0-.675-.784-1.882-1.12-2.37z" fill="#00bcd4"/><path d="m12 24c-6.617 0-12-5.383-12-12s5.383-12 12-12 12 5.383 12 12-5.383 12-12 12zm0-22.5c-5.79 0-10.5 4.71-10.5 10.5s4.71 10.5 10.5 10.5 10.5-4.71 10.5-10.5-4.71-10.5-10.5-10.5z"/><path d="m7 11c-1.103 0-2-.897-2-2s.897-2 2-2 2 .897 2 2-.897 2-2 2zm0-2.5c-.276 0-.5.224-.5.5s.224.5.5.5.5-.224.5-.5-.224-.5-.5-.5z"/><path d="m17 11c-1.103 0-2-.897-2-2s.897-2 2-2 2 .897 2 2-.897 2-2 2zm0-2.5c-.276 0-.5.224-.5.5s.224.5.5.5.5-.224.5-.5-.224-.5-.5-.5z"/><path d="m14.75 19.639c-.192 0-.384-.073-.53-.22-1.186-1.186-3.254-1.186-4.439 0-.293.293-.768.293-1.061 0-.293-.292-.293-.768 0-1.061.876-.876 2.041-1.358 3.28-1.358s2.404.482 3.28 1.359c.293.293.293.768 0 1.061-.146.146-.338.219-.53.219z"/><path d="m18 17c-1.103 0-2-.897-2-2 0-.834.967-2.324 1.383-2.926.28-.405.954-.405 1.234 0 .416.602 1.383 2.092 1.383 2.926 0 1.103-.897 2-2 2zm0-3.093c-.286.5-.487.931-.5 1.101 0 .269.224.493.5.493.274 0 .498-.222.5-.495-.015-.173-.216-.602-.5-1.099z"/></svg>