<?xml version="1.0" encoding="iso-8859-1"?>
<!-- Generator: Adobe Illustrator 19.0.0, SVG Export Plug-In . SVG Version: 6.00 Build 0)  -->
<svg version="1.1" id="Capa_1" xmlns="http://www.w3.org/2000/svg" xmlns:xlink="http://www.w3.org/1999/xlink" x="0px" y="0px"
	 viewBox="0 0 512 512" style="enable-background:new 0 0 512 512;" xml:space="preserve">
<path style="fill:#F44336;" d="M364,48.057c-39.695,0.107-78.027,14.486-108,40.512c-29.973-26.026-68.305-40.405-108-40.512
	C69.434,44.931,3.21,106.087,0.084,184.653c-0.038,0.943-0.066,1.886-0.084,2.829c0,114.912,222.144,258.176,247.456,274.112
	c5.188,3.243,11.772,3.243,16.96,0C356.384,404.921,512,283.353,512,187.481c-1.564-78.612-66.559-141.072-145.171-139.508
	C365.886,47.992,364.943,48.02,364,48.057z"/>
<g>
	<path style="fill:#FFCA28;" d="M13.952,240.473c5.259,10.988,11.368,21.548,18.272,31.584H480
		c6.911-10.027,13.051-20.564,18.368-31.52c-0.774-0.228-1.566-0.388-2.368-0.48H16C15.308,240.146,14.624,240.285,13.952,240.473z"
		/>
	<path style="fill:#FFCA28;" d="M224,272.057c-2.475,0.005-4.918-0.565-7.136-1.664c-26.309-12.353-51.364-27.217-74.816-44.384
		c-18.751-18.751-18.751-49.153,0-67.904s49.153-18.751,67.904,0c16.136,29.462,26.272,61.829,29.824,95.232
		c1.502,8.708-4.339,16.985-13.047,18.487C225.828,271.98,224.915,272.058,224,272.057z M176,176.057
		c-8.837-0.016-16.013,7.135-16.029,15.971c-0.008,4.26,1.684,8.348,4.701,11.357c11.586,8.764,23.947,16.454,36.928,22.976
		c-2.771-15.825-7.657-31.205-14.528-45.728C184.113,177.732,180.144,176.091,176,176.057z"/>
	<path style="fill:#FFCA28;" d="M224,272.057c-8.837,0.005-16.004-7.155-16.009-15.991c-0.001-0.915,0.077-1.828,0.233-2.729
		c3.552-33.403,13.688-65.77,29.824-95.232c18.751-18.751,49.153-18.751,67.904,0s18.751,49.153,0,67.904
		c-23.452,17.167-48.507,32.031-74.816,44.384C228.918,271.492,226.475,272.062,224,272.057z M260.832,180.633
		c-6.852,14.521-11.707,29.904-14.432,45.728c13.015-6.516,25.407-14.207,37.024-22.976c5.868-6.607,5.269-16.72-1.338-22.588
		c-5.99-5.319-14.99-5.39-21.062-0.164H260.832z"/>
	<path style="fill:#FFCA28;" d="M176,336.057c-3.464,0.014-6.837-1.11-9.6-3.2c-7.069-5.302-8.502-15.331-3.2-22.4l48-64
		c5.302-7.069,15.331-8.502,22.4-3.2c7.069,5.302,8.502,15.331,3.2,22.4l-48,64C185.778,333.686,181.036,336.057,176,336.057z"/>
	<path style="fill:#FFCA28;" d="M272,336.057c-5.036,0-9.778-2.371-12.8-6.4l-48-64c-5.302-7.069-3.869-17.098,3.2-22.4
		c7.069-5.302,17.098-3.869,22.4,3.2l48,64c5.302,7.069,3.869,17.098-3.2,22.4C278.837,334.947,275.464,336.071,272,336.057z"/>
</g>
<path d="M256,464.057c-3.025,0.015-5.991-0.84-8.544-2.464C222.144,445.657,0,302.393,0,187.481
	C1.564,108.869,66.559,46.409,145.171,47.973c0.943,0.019,1.886,0.047,2.829,0.084c39.699,0.116,78.032,14.507,108,40.544
	c29.968-26.037,68.301-40.428,108-40.544c78.566-3.126,144.79,58.03,147.916,136.595c0.038,0.943,0.066,1.886,0.084,2.829
	c0,96-155.616,217.44-247.584,274.208C261.885,463.245,258.971,464.065,256,464.057z M148,80.057
	C86.885,77.15,34.985,124.338,32.078,185.453c-0.032,0.676-0.058,1.352-0.078,2.028c0,67.2,114.56,171.136,224,241.664
	c112.64-71.2,224-175.296,224-241.664c-1.787-61.158-52.813-109.288-113.972-107.502c-0.676,0.02-1.352,0.046-2.028,0.078
	c-36.428-0.035-71.243,15.026-96.16,41.6c-6.432,6.539-16.947,6.626-23.486,0.194c-0.065-0.064-0.13-0.128-0.194-0.194
	C219.243,95.084,184.428,80.022,148,80.057z"/>
<path d="M471.68,272.057H40.32c-8.837,0-16-7.163-16-16s7.163-16,16-16h431.36c8.837,0,16,7.163,16,16
	S480.517,272.057,471.68,272.057z"/>
<path d="M224,272.057c-2.473-0.014-4.912-0.583-7.136-1.664c-26.309-12.353-51.364-27.217-74.816-44.384
	c-18.751-18.751-18.751-49.153,0-67.904s49.153-18.751,67.904,0c16.134,29.449,26.26,61.808,29.792,95.2
	c1.52,8.705-4.305,16.994-13.01,18.514C225.831,271.976,224.917,272.056,224,272.057z M176,176.057
	c-8.837-0.016-16.013,7.135-16.029,15.971c-0.008,4.26,1.684,8.348,4.701,11.357c11.576,8.779,23.938,16.47,36.928,22.976
	c-2.75-15.814-7.593-31.192-14.4-45.728C184.21,177.701,180.188,176.058,176,176.057z"/>
<path d="M224,272.057c-8.837-0.01-15.992-7.181-15.982-16.018c0.001-0.917,0.081-1.831,0.238-2.734
	c3.532-33.392,13.658-65.751,29.792-95.2c18.751-18.751,49.153-18.751,67.904,0c18.751,18.751,18.751,49.153,0,67.904
	c-23.452,17.167-48.507,32.031-74.816,44.384C228.912,271.474,226.473,272.043,224,272.057z M260.8,180.633
	c-6.802,14.539-11.644,29.915-14.4,45.728c13.019-6.508,25.412-14.199,37.024-22.976c5.868-6.607,5.269-16.72-1.338-22.588
	c-5.99-5.319-14.99-5.39-21.062-0.164H260.8z"/>
<path d="M176,336.057c-8.837,0-16-7.163-16-16c0-3.462,1.123-6.83,3.2-9.6l48-64c5.302-7.069,15.331-8.502,22.4-3.2
	c7.069,5.302,8.502,15.331,3.2,22.4l-48,64C185.778,333.686,181.036,336.057,176,336.057z"/>
<path d="M272,336.057c-5.036,0-9.778-2.371-12.8-6.4l-48-64c-5.302-7.069-3.869-17.098,3.2-22.4c7.069-5.302,17.098-3.869,22.4,3.2
	l48,64c5.302,7.069,3.869,17.098-3.2,22.4C278.831,334.934,275.462,336.057,272,336.057L272,336.057z"/>
<g>
</g>
<g>
</g>
<g>
</g>
<g>
</g>
<g>
</g>
<g>
</g>
<g>
</g>
<g>
</g>
<g>
</g>
<g>
</g>
<g>
</g>
<g>
</g>
<g>
</g>
<g>
</g>
<g>
</g>
</svg>
