<svg enable-background="new 0 0 24 24" height="512" viewBox="0 0 24 24" width="512" xmlns="http://www.w3.org/2000/svg"><circle cx="12" cy="12" fill="#ffd54f" r="10.8"/><circle cx="17" cy="10" fill="#6d4c41" r="1.62"/><circle cx="7" cy="10" fill="#6d4c41" r="1.62"/><ellipse cx="12" cy="17.5" fill="#e53935" rx="2.43" ry="2.795"/><path d="m12 24c-6.617 0-12-5.383-12-12s5.383-12 12-12 12 5.383 12 12-5.383 12-12 12zm0-22.5c-5.79 0-10.5 4.71-10.5 10.5s4.71 10.5 10.5 10.5 10.5-4.71 10.5-10.5-4.71-10.5-10.5-10.5z"/><path d="m17 12c-1.103 0-2-.897-2-2s.897-2 2-2 2 .897 2 2-.897 2-2 2zm0-2.5c-.275 0-.5.224-.5.5s.225.5.5.5.5-.224.5-.5-.225-.5-.5-.5z"/><path d="m17.884 5.866c-.192 0-.384-.073-.53-.22-.195-.194-.512-.194-.707 0-.293.293-.768.293-1.061 0s-.293-.768 0-1.061c.779-.78 2.049-.78 2.828 0 .293.293.293.768 0 1.061-.146.147-.338.22-.53.22z"/><path d="m7 12c-1.103 0-2-.897-2-2s.897-2 2-2 2 .897 2 2-.897 2-2 2zm0-2.5c-.275 0-.5.224-.5.5s.225.5.5.5.5-.224.5-.5-.225-.5-.5-.5z"/><path d="m7.884 5.866c-.192 0-.384-.073-.53-.22-.195-.194-.512-.194-.707 0-.293.293-.768.293-1.061 0s-.293-.768 0-1.061c.779-.78 2.049-.78 2.828 0 .293.293.293.768 0 1.061-.146.147-.338.22-.53.22z"/><path d="m12 20.95c-1.654 0-3-1.548-3-3.45s1.346-3.45 3-3.45 3 1.548 3 3.45-1.346 3.45-3 3.45zm0-5.4c-.827 0-1.5.875-1.5 1.95s.673 1.95 1.5 1.95 1.5-.875 1.5-1.95-.673-1.95-1.5-1.95z"/></svg>